<?xml version="1.0" encoding="utf-8"?><!-- Uploaded to: SVG Repo, www.svgrepo.com, Generator: SVG Repo Mixer Tools -->
<svg width="800px" height="800px" viewBox="0 0 366.34 366.34" id="Layer_1" data-name="Layer 1" xmlns="http://www.w3.org/2000/svg" xmlns:xlink="http://www.w3.org/1999/xlink"><defs><style>.cls-1{fill:#f2d4cf;}.cls-2{fill:url(#linear-gradient);}.cls-3{fill:#daaea8;}.cls-4{fill:url(#linear-gradient-2);}.cls-5{fill:none;stroke:#00214e;stroke-miterlimit:10;}.cls-6{fill:#00214e;}</style><linearGradient id="linear-gradient" x1="69.93" y1="285.63" x2="296.41" y2="285.63" gradientUnits="userSpaceOnUse"><stop offset="0" stop-color="#16243f"/><stop offset="1" stop-color="#6878b1"/></linearGradient><linearGradient id="linear-gradient-2" x1="108.37" y1="122.42" x2="277.76" y2="122.42" gradientUnits="userSpaceOnUse"><stop offset="0" stop-color="#315676"/><stop offset="1" stop-color="#e1b9e0"/></linearGradient></defs><title>Artboards_Diversity_Avatars_by_Netguru</title><path class="cls-1" d="M296.41,281a184.56,184.56,0,0,1-226.48-1l48.66-22.81a46.83,46.83,0,0,0,6.65-3.82c.64-.44,1.28-.9,1.89-1.38a46.35,46.35,0,0,0,12.78-15.09,44.69,44.69,0,0,0,4.64-14.48,67.91,67.91,0,0,0,.74-9.91c0-5.72-.31-11.44-.37-17.17q-.06-4.76-.1-9.51l2,1,5.2,2.69,2.41.41,27.88,4.74,31.12,5.3.94,32,.31,10.46.15,5.08v.33l12.1,4.92Z"/><path class="cls-2" d="M296.41,281a184.56,184.56,0,0,1-226.48-1l48.66-22.81a46.83,46.83,0,0,0,6.65-3.82c.64-.44,1.28-.9,1.89-1.38,23.55,16.76,55.69,27.33,83.49,14.82,6.62-3,12.7-7.84,16.3-14.06Z"/><path class="cls-3" d="M214.81,247.47c-10.45.63-22.13-2.07-33-8.34-20.41-11.79-31.32-32.35-27.4-49.21l27.88,4.74,31.12,5.3.94,32Z"/><path class="cls-4" d="M268,91.39q-7.83,25.67-17.49,50.72C246,153.87,244,163.39,232,169c-8.82,4.09-18.67,5.24-27.82,8.38-5,1.72-59.22,17.12-59.22,20.47,0-.72-5.31-6-12-12.4a79.87,79.87,0,0,1-23.47-43.29c-2.54-13.94-.41-31.17,3.69-44.68C133,32.12,227.74,44.89,277.76,56.3Q273.31,74,268,91.39Z"/><circle class="cls-1" cx="134.98" cy="157.8" r="17"/><circle class="cls-3" cx="140.38" cy="157.8" r="15.22"/><path class="cls-1" d="M140.6,141.76l2.32,30.18,1.51,19.72c.56,7.27,3.4,11.61,8.12,17.43A85.26,85.26,0,0,0,183.81,233c11.6,5.16,27.68,10.31,40.06,5.3,12.65-5.13,16.69-19.33,20.95-31.11s8.2-24.74,8-37.46c-.27-17.26-4.84-26.94-4.84-26.94l3.33-19.94c1.25-7.51,2.86-15.35,1-22.9-2.13-8.65-8.67-12.35-14.05-18.82-14.16,18.24-37.44,28.55-57.77,39C170,125.58,140.6,141.76,140.6,141.76Z"/><path class="cls-5" d="M169.11,135.05a80.57,80.57,0,0,1,28.13-.79"/><path class="cls-5" d="M231.7,134.1a55.34,55.34,0,0,1,17.45-1.21"/><path class="cls-5" d="M177.94,194.93a39.67,39.67,0,0,1,15.24-14.41"/><path class="cls-5" d="M197.05,149.77a11.56,11.56,0,0,1-7,9.29,23.67,23.67,0,0,1-6.41,1.38"/><line class="cls-5" x1="197.21" y1="117.87" x2="228.81" y2="117.87"/><line class="cls-5" x1="193.18" y1="124.4" x2="224.79" y2="124.4"/><path class="cls-5" d="M228.67,149.49a34.55,34.55,0,0,0,3.74,7.22,10.09,10.09,0,0,0,6.24,4"/><path class="cls-6" d="M225.33,169.34c.47.75.9,1.52,1.3,2.31a6.85,6.85,0,0,1,.89,2.43,2.06,2.06,0,0,1-2.4,2.12c-.63-.13-.9.83-.27,1a3.09,3.09,0,0,0,3.64-2.45,5.19,5.19,0,0,0-.7-2.94,25.19,25.19,0,0,0-1.6-2.93c-.34-.54-1.21,0-.86.5Z"/><path class="cls-6" d="M208.61,170.51c-.85,1.36-1.85,3.06-1.37,4.73.4,1.36,1.84,2.62,3.31,2.09.6-.22.34-1.18-.26-1-1,.37-2-.69-2.14-1.64-.22-1.33.66-2.65,1.33-3.71.34-.55-.52-1.05-.87-.51Z"/><path class="cls-5" d="M192.67,188.66a29.79,29.79,0,0,0,18.54,9.69"/><ellipse class="cls-6" cx="187.3" cy="148.28" rx="3.27" ry="7.94" transform="translate(25.6 324.12) rotate(-85.77)"/><ellipse class="cls-6" cx="238.8" cy="146.63" rx="7.94" ry="3.27" transform="translate(-19.74 38.54) rotate(-8.86)"/></svg>