<?xml version="1.0" encoding="utf-8"?><!-- Uploaded to: SVG Repo, www.svgrepo.com, Generator: SVG Repo Mixer Tools -->
<svg width="800px" height="800px" viewBox="0 0 366.34 366.34" id="Layer_1" data-name="Layer 1" xmlns="http://www.w3.org/2000/svg"><defs><style>.cls-1{fill:#daaea8;}.cls-2{fill:#845161;}.cls-3{fill:#de8276;}.cls-4{fill:#69303a;}.cls-5{fill:none;stroke:#00214e;stroke-miterlimit:10;}.cls-6{fill:#ffffff;}.cls-7{fill:#00214e;}</style></defs><title>Artboards_Diversity_Avatars_by_Netguru</title><path class="cls-1" d="M115.41,159.53c-10.76-22.23-9.34-49.24,2.82-70.62,17.62-31,57-45.65,91.25-43.81,6.74.36,14.09,1.65,18.49,6.77,1.37,1.59,2.5,3.58,4.45,4.38a9.93,9.93,0,0,0,4.21.35c6.33-.29,12.91.64,18.3,4s9.35,9.43,8.9,15.76c-.13,1.83-.59,3.78.19,5.45.65,1.39,2,2.26,3.14,3.33,3,2.91,4,7.45,3.52,11.62-1.53,13.81-5.47,28.07-12.78,40.05a83.7,83.7,0,0,1-16.73,19.78c-6.48,5.58-14.53,8.21-20.13,14.62-5.84,6.69-5.11,15.77-10.84,23-6.09,7.69-15,12.65-24.44,15.09-10.55,2.73-31.27,3.74-40.71-2.55-2.87-1.91-4.91-4.8-6.84-7.65A319.59,319.59,0,0,1,115.41,159.53Z"/><path class="cls-2" d="M296.41,283.08a184.56,184.56,0,0,1-226.48-1l48.66-22.81a46.83,46.83,0,0,0,6.65-3.82c.64-.44,1.28-.9,1.89-1.38A46.35,46.35,0,0,0,139.91,239a44.69,44.69,0,0,0,4.64-14.48,67.91,67.91,0,0,0,.74-9.91c0-5.72-.31-11.44-.37-17.17q-.06-4.75-.1-9.51l2,1,5.2,2.69,2.41.41,27.88,4.74,31.12,5.3.94,32,.31,10.46.15,5.08v.33l12.1,4.92Z"/><path class="cls-3" d="M296.41,283.08a184.56,184.56,0,0,1-226.48-1l48.66-22.81a46.83,46.83,0,0,0,6.65-3.82c.64-.44,1.28-.9,1.89-1.38,23.55,16.76,55.69,27.33,83.49,14.82,6.62-3,12.7-7.84,16.3-14.06Z"/><path class="cls-4" d="M214.81,249.57c-10.45.63-22.13-2.07-33-8.34-20.41-11.79-31.32-32.35-27.4-49.21l27.88,4.74,31.12,5.3.94,32Z"/><circle class="cls-2" cx="134.98" cy="159.9" r="17"/><circle class="cls-4" cx="140.38" cy="159.9" r="15.22"/><path class="cls-2" d="M140.6,143.86,142.92,174l1.51,19.73c.56,7.26,3.4,11.61,8.12,17.42a85,85,0,0,0,31.26,23.92c11.6,5.17,27.68,10.32,40.06,5.3,12.65-5.12,16.69-19.33,20.95-31.1s8.2-24.74,8-37.46c-.27-17.26-4.84-26.94-4.84-26.94L251.31,125c1.25-7.51,2.86-15.35,1-22.9-2.13-8.66-8.67-12.35-14.05-18.82-14.16,18.24-37.44,28.55-57.77,39C170,127.68,140.6,143.86,140.6,143.86Z"/><path class="cls-5" d="M217.05,148.73c-.06.24,5.54,15.88,8.93,25.32a5.25,5.25,0,0,1-4.95,7H217.4"/><path class="cls-5" d="M203.4,175a3.15,3.15,0,0,0,2.3,5.78"/><path class="cls-5" d="M169.11,137.15a80.82,80.82,0,0,1,28.13-.8"/><path class="cls-5" d="M231.7,136.2A55,55,0,0,1,249.15,135"/><path class="cls-5" d="M177.94,197a39.67,39.67,0,0,1,15.24-14.41"/><path class="cls-5" d="M195.85,152.35a11.6,11.6,0,0,1-5.18,8.32,12.14,12.14,0,0,1-1.85,1,23.58,23.58,0,0,1-6.41,1.37"/><line class="cls-5" x1="197.21" y1="119.97" x2="228.81" y2="119.97"/><line class="cls-5" x1="193.18" y1="126.49" x2="224.79" y2="126.49"/><path class="cls-5" d="M228.67,150.07a34.8,34.8,0,0,0,3.74,7.22,10.09,10.09,0,0,0,6.24,4"/><path class="cls-6" d="M190,193.55a1.86,1.86,0,0,1,2.68-.5c2.08,1.46,5.88,4.56,11.28,5.63,7.36,1.47,13.75-1.48,15.27.42.86,1.07-.19,2.37-2.2,4.05a19.74,19.74,0,0,1-14.86,3.69c-7.08-1.33-12.39-9.53-12.39-12.44A1.68,1.68,0,0,1,190,193.55Z"/><path class="cls-7" d="M187.28,145.76c6.1-.06,6.28,9.26.18,9.43h-.27c-6.11.07-6.29-9.25-.19-9.42h.28Z"/><path class="cls-7" d="M237.51,144.13c5.67-.07,5.84,8.59.17,8.74h-.25c-5.66.06-5.83-8.59-.17-8.75h.25Z"/></svg>